{"title":"The.War.Boys.2009.DVDRip.XviD-MAGNET","uid":5635239,"size":1177265539,"categoryP":"video","categoryS":"movies","magnet":"?xt=urn:btih:a4bf6a0a8b674b673ac1c73450e6c297ecd8e915&amp;dn=The.War.Boys.2009.DVDRip.XviD-MAGNET&amp;tr=udp%3A%2F%2Ftracker.openbittorrent.com%3A80&amp;tr=udp%3A%2F%2Fopen.demonii.com%3A1337&amp;tr=udp%3A%2F%2Ftracker.coppersurfer.tk%3A6969&amp;tr=udp%3A%2F%2Fexodus.desync.com%3A6969","seeders":0,"leechers":1,"uploader":"hiest","files":4,"time":1276860885,"description":"Description\n\n\n\nPlot\n\n \nThree young vigilantes huddle on la linea ready to chase illegals back across the border into Mexico... but they soon learn that there are borderlines deep within each one of them that each of them has to cross.\n\n\n\nincluded the sample.\n--------------------\nEnjoy.\n\n\n\n \nVideo\n\n\nFormat : xvid\nCodec ID : xvid\nDuration : 1h 32mn\nBit rate : 1 605 Kbps\nWidth : 720 pixels\nHeight : 350 pixels\nDisplay aspect ratio : 2.057\nFrame rate : 23.976 fps\nBits/(Pixel*Frame) : 0.266\nStream size : 1.04 GiB (95%)\n\n\n\nAudio\n\nID : 1\nFormat : MPEG Audio\nFormat version : Version 1\nFormat profile : Layer 2\nCodec ID : 50\nDuration : 1h 32mn\nBit rate mode : Constant\nBit rate : 64.0 Kbps\nChannel(s) : 2 channels\nSampling rate : 48.0 KHz\nStream size : 42.5 MiB (4%)\nAlignment : Aligned on interleaves\nInterleave, duration : 24 ms (0.58 video frame)\n\n\nScreenshots\n\n &lt;a href=&quot;\nhttp://postimg.com/image/17000/16533.jpg&quot; rel=&quot;nofollow&quot; target=&quot;_NEW&quot;&gt;\nhttp://postimg.com/image/17000/16533.jpg&lt;/a&gt;","torrent":{"xt":"urn:btih:a4bf6a0a8b674b673ac1c73450e6c297ecd8e915","amp;dn":"The.War.Boys.2009.DVDRip.XviD-MAGNET","amp;tr":["udp%3A%2F%2Ftracker.openbittorrent.com%3A80","udp%3A%2F%2Fopen.demonii.com%3A1337","udp%3A%2F%2Ftracker.coppersurfer.tk%3A6969","udp%3A%2F%2Fexodus.desync.com%3A6969"],"infoHash":"a4bf6a0a8b674b673ac1c73450e6c297ecd8e915","infoHashBuffer":{"type":"Buffer","data":[164,191,106,10,139,103,75,103,58,193,199,52,80,230,194,151,236,216,233,21]},"announce":[],"urlList":[]}}